<?xml version="1.0" encoding="utf-8"?>
<!-- Generator: Adobe Illustrator 22.1.0, SVG Export Plug-In . SVG Version: 6.00 Build 0)  -->
<svg version="1.1" baseProfile="basic" id="Layer_1"
	 xmlns="http://www.w3.org/2000/svg" xmlns:xlink="http://www.w3.org/1999/xlink" x="0px" y="0px" width="967px" height="143.2px"
	 viewBox="0 0 967 143.2" xml:space="preserve">
<g>
	<path style="fill-rule:evenodd;clip-rule:evenodd;fill:#5F6060;" d="M580.3,0.5c0-0.3,0.2-0.5,0.5-0.5h13.3c6,0,13.4,5.2,13.4,13.2
		v46.5c0,5.2,3.4,9,8.8,9H661c7.3,0,9.9-3.9,9.9-9.9V13.5c0-7.1,6-13.5,13.7-13.5h13.1c0.3,0,0.5,0.2,0.5,0.5v60.8
		c0,16.6-13.2,30-29.3,30h-51.4h-7c-20.9,0-30.2-16.9-30.2-30V0.5z"/>
	<path style="fill-rule:evenodd;clip-rule:evenodd;fill:#5F6060;" d="M519.3,91.1V29.7c0-3.9,3.2-7.1,7.1-7.1h26.5
		c6.4,0,11.6-5.2,11.6-11.6V0.5c0-0.3-0.2-0.5-0.5-0.5H447.8c-0.3,0-0.5,0.2-0.5,0.5v10.5c0,6.4,5.2,11.6,11.6,11.6h26.5
		c3.9,0,7.1,3.2,7.1,7.1v61.4c0,0.3,0.2,0.5,0.5,0.5h25.8C519.1,91.6,519.3,91.4,519.3,91.1"/>
	<path style="fill-rule:evenodd;clip-rule:evenodd;fill:#5F6060;" d="M317.5,0.5c0-0.3,0.2-0.5,0.5-0.5h13.3c6,0,13.4,5.2,13.4,13.2
		v46.5c0,5.2,3.4,9,8.8,9h44.6c7.3,0,9.9-3.9,9.9-9.9V13.5c0-7.1,6-13.5,13.7-13.5h13.1c0.3,0,0.5,0.2,0.5,0.5V61
		c0,16.6-13.2,30.4-29.3,30.4h-51.4h-7c-20.9,0-30.2-17.4-30.2-30.6V0.5z"/>
	<path style="fill-rule:evenodd;clip-rule:evenodd;fill:#5F6060;" d="M187.3,90.8c0,0.3,0.2,0.5,0.5,0.5h13.7c6.8,0,13-6.4,13-13.6
		V64c0-0.3,0.2-0.5,0.5-0.5h36.1c2.6,0,4.9-0.8,6.1-2.8l9.2-15.5c2-3.4-0.8-7.4-4.4-7.4h-47c-0.3,0-0.5-0.2-0.5-0.5v-4.6
		c0-7.2,2.4-10.1,9.9-10.1h68.3c5.8,0,11-5.3,11-10.3V0.5c0-0.3-0.2-0.5-0.5-0.5h-85.8c-19.4,0-30.2,12.9-30.2,29.2V90.8z"/>
	<path style="fill-rule:evenodd;clip-rule:evenodd;fill:#5F6060;" d="M821.9,32.5l-32.1,58c-0.2,0.4,0.1,0.8,0.5,0.8h30
		c0.2,0,0.4-0.1,0.5-0.3l29.7-53.6c5.8-10.5,12.2-14.7,21.2-14.7c7.3,0,14.4,2.7,20.5,13.8l7.8,14.2c0.2,0.4-0.1,0.8-0.5,0.8h-33.6
		c-2.1,0-4.9,0.4-6.2,2.8L851,69.8c-1.8,3.2,0.7,7.4,3.8,7.4h59.4c0.2,0,0.4,0.1,0.5,0.3l7.4,13.6c0.1,0.2,0.3,0.3,0.5,0.3H953
		c0.4,0,0.7-0.4,0.5-0.8L921,32C907.5,7.8,889.2,0.6,871.8,0.6C854.4,0.6,835.7,7.6,821.9,32.5"/>
	<path style="fill-rule:evenodd;clip-rule:evenodd;fill:#5F6060;" d="M720.2,91.1h13.7c7.1,0,13-5.8,13-13V32.7
		c0-5.8,5.1-10.1,9.9-10.1h51.3c6.3,0,11.5-5.2,11.5-11.5V0.5c0-0.3-0.2-0.5-0.5-0.5h-69.3c-16.5,0-30.2,13.4-30.2,30.6v60
		C719.7,90.9,719.9,91.1,720.2,91.1"/>
	<path style="fill-rule:evenodd;clip-rule:evenodd;fill:#5F6060;" d="M962.1,81.2c2.7,0,5,2.2,5,5c0,2.7-2.2,5-5,5c-2.7,0-5-2.2-5-5
		C957.1,83.4,959.3,81.2,962.1,81.2 M962.1,81.6c2.6,0,4.6,2.1,4.6,4.6c0,2.6-2.1,4.6-4.6,4.6c-2.6,0-4.6-2.1-4.6-4.6
		C957.4,83.6,959.5,81.6,962.1,81.6 M960.5,85.6h1.8c0.4,0,0.7,0,0.9-0.1c0.2-0.1,0.4-0.2,0.5-0.4c0.1-0.2,0.2-0.4,0.2-0.6
		c0-0.3-0.1-0.5-0.3-0.7c-0.2-0.2-0.5-0.3-1-0.3h-1.9V85.6z M959.7,89.1v-6.2h2.7c0.5,0,1,0.1,1.3,0.2c0.3,0.1,0.5,0.3,0.7,0.6
		c0.2,0.3,0.3,0.6,0.3,0.9c0,0.4-0.1,0.8-0.4,1.1c-0.3,0.3-0.7,0.5-1.3,0.6c0.2,0.1,0.4,0.2,0.5,0.3c0.2,0.2,0.5,0.5,0.7,0.8
		l1.1,1.7h-1l-0.8-1.3c-0.2-0.4-0.4-0.7-0.6-0.9c-0.2-0.2-0.3-0.3-0.4-0.4c-0.1-0.1-0.2-0.1-0.4-0.2c-0.1,0-0.2,0-0.5,0h-0.9v2.7
		H959.7z"/>
	<path style="fill:#5F6060;" d="M200,122.7c-0.6-0.5-1.3-1-2.2-1.3c-0.8-0.3-1.7-0.4-2.7-0.4H187v22h2.3v-9h5.9c1,0,1.9-0.1,2.7-0.4
		c0.8-0.3,1.6-0.7,2.2-1.3c0.6-0.6,1.1-1.2,1.4-2c0.3-0.8,0.5-1.7,0.5-2.7c0-1-0.2-1.9-0.5-2.7C201.1,123.9,200.6,123.2,200,122.7
		 M199.6,127.5c0,0.7-0.1,1.4-0.3,1.9c-0.2,0.5-0.5,1-0.9,1.3c-0.4,0.4-0.9,0.6-1.4,0.8c-0.6,0.2-1.2,0.3-1.9,0.3h-5.7v-8.7h5.7
		c0.7,0,1.3,0.1,1.9,0.3c0.6,0.2,1,0.4,1.4,0.8c0.4,0.4,0.7,0.8,0.9,1.3C199.5,126.1,199.6,126.7,199.6,127.5"/>
	<path style="fill:#5F6060;" d="M227.4,121l-8.1,22h2.5l1.9-5.2h9.5l1.9,5.2h2.5l-8.1-22H227.4z M232.4,135.7h-7.9l4-11.2
		L232.4,135.7z"/>
	<path style="fill:#5F6060;" d="M271.8,131.1L271.8,131.1c0.9-1,1.4-2.4,1.4-4.1c0-1-0.2-1.8-0.5-2.6c-0.3-0.8-0.8-1.4-1.4-1.9
		c-0.6-0.5-1.3-0.9-2.1-1.2c-0.8-0.3-1.6-0.4-2.5-0.4h-8.5v22h2.3v-9.8h5.3l5.1,9.8h2.7l-5.2-9.9
		C269.8,132.7,270.9,132.1,271.8,131.1 M270.6,128.9c-0.2,0.5-0.5,0.9-0.9,1.2c-0.4,0.3-0.8,0.6-1.4,0.7c-0.5,0.2-1.1,0.2-1.8,0.2
		h-5.9v-7.9h5.9c0.6,0,1.2,0.1,1.8,0.2c0.5,0.2,1,0.4,1.4,0.7c0.4,0.3,0.7,0.7,0.9,1.2c0.2,0.5,0.3,1.1,0.3,1.8
		C270.9,127.8,270.8,128.4,270.6,128.9"/>
	<polygon style="fill:#5F6060;" points="293.5,123.1 299.9,123.1 299.9,143 302.2,143 302.2,123.1 308.6,123.1 308.6,121 293.5,121 
			"/>
	<polygon style="fill:#5F6060;" points="343.9,138.7 332.2,121 330,121 330,143 332.3,143 332.3,125.2 344,142.8 344.1,143 
		346.2,143 346.2,121 343.9,121 	"/>
	<polygon style="fill:#5F6060;" points="370.1,143 383.7,143 383.7,140.9 372.4,140.9 372.4,133 382,133 382,130.8 372.4,130.8 
		372.4,123.1 383.7,123.1 383.7,121 370.1,121 	"/>
	<path style="fill:#5F6060;" d="M419.4,131.1L419.4,131.1c0.9-1,1.4-2.4,1.4-4.1c0-1-0.2-1.8-0.5-2.6c-0.3-0.8-0.8-1.4-1.4-1.9
		c-0.6-0.5-1.3-0.9-2.1-1.2c-0.8-0.3-1.6-0.4-2.5-0.4H406v22h2.3v-9.8h5.3l5.1,9.8h2.7l-5.2-9.9
		C417.5,132.7,418.6,132.1,419.4,131.1 M418.2,128.9c-0.2,0.5-0.5,0.9-0.9,1.2c-0.4,0.3-0.8,0.6-1.4,0.7c-0.5,0.2-1.1,0.2-1.8,0.2
		h-5.9v-7.9h5.9c0.6,0,1.2,0.1,1.8,0.2c0.5,0.2,1,0.4,1.4,0.7c0.4,0.3,0.7,0.7,0.9,1.2c0.2,0.5,0.3,1.1,0.3,1.8
		C418.6,127.8,418.4,128.4,418.2,128.9"/>
	<path style="fill:#5F6060;" d="M454.8,132.5L454.8,132.5c-0.2-0.2-0.5-0.4-0.7-0.5c-0.3-0.2-0.5-0.3-0.9-0.4
		c-0.3-0.1-0.7-0.2-1.1-0.3c-0.4-0.1-0.8-0.2-1.3-0.2l-2.3-0.4c-0.6-0.1-1.1-0.3-1.7-0.5c-0.5-0.2-1-0.5-1.3-0.8
		c-0.7-0.6-1-1.4-1-2.5c0-1.3,0.4-2.2,1.2-3c0.8-0.7,1.9-1.1,3.4-1.1c0.6,0,1.2,0,1.6,0.1c0.5,0.1,0.9,0.2,1.3,0.4
		c0.4,0.2,0.7,0.4,1,0.6c0.3,0.2,0.7,0.5,1,0.8l0.2,0.2l1.5-1.5l-0.3-0.2c-0.9-0.8-1.9-1.4-2.9-1.8c-1-0.4-2.1-0.6-3.5-0.6
		c-2.1,0-3.8,0.6-5.1,1.7c-1.3,1.1-1.9,2.6-1.9,4.5c0,1.8,0.6,3.2,1.8,4.2c1,0.8,2.3,1.4,4,1.6l2.5,0.4c0.4,0.1,0.8,0.1,1.1,0.2
		c0.3,0.1,0.5,0.1,0.8,0.2c0.2,0.1,0.4,0.2,0.5,0.3c0.2,0.1,0.4,0.2,0.5,0.4c0.7,0.6,1.1,1.5,1.1,2.7c0,1.3-0.4,2.3-1.3,3
		c-0.9,0.7-2.2,1.1-3.8,1.1c-0.6,0-1.2,0-1.7-0.1c-0.5-0.1-1-0.2-1.4-0.4c-0.5-0.2-0.9-0.4-1.3-0.7c-0.4-0.3-0.9-0.7-1.3-1.2
		l-0.2-0.2l-1.6,1.6l0.2,0.2c0.5,0.5,1,0.9,1.5,1.3c0.5,0.4,1.1,0.7,1.7,0.9c0.6,0.2,1.2,0.4,1.9,0.5c0.7,0.1,1.4,0.2,2.2,0.2
		c2.3,0,4.2-0.6,5.5-1.7c1.4-1.1,2-2.7,2-4.6c0-0.9-0.2-1.7-0.5-2.5C455.9,133.7,455.4,133,454.8,132.5"/>
	<path style="fill:#5F6060;" d="M542.2,131.7c0.7-0.4,1.4-0.9,1.8-1.6c0.6-0.9,0.9-2,0.9-3.2c0-0.9-0.2-1.8-0.5-2.5
		c-0.3-0.7-0.8-1.4-1.4-1.9c-0.6-0.5-1.3-0.9-2.1-1.2c-0.8-0.3-1.7-0.4-2.6-0.4h-8.2v22h8.4c1,0,1.9-0.1,2.7-0.4
		c0.8-0.3,1.5-0.7,2.1-1.2c0.6-0.5,1-1.2,1.4-1.9c0.3-0.8,0.5-1.6,0.5-2.6c0-1.3-0.3-2.4-1-3.4C543.8,132.7,543.1,132.1,542.2,131.7
		 M532.6,132.8h5.9c1.4,0,2.5,0.4,3.3,1.1c0.8,0.7,1.2,1.7,1.2,3s-0.4,2.3-1.2,3c-0.8,0.7-1.9,1.1-3.3,1.1h-5.9V132.8z M541.4,129.8
		c-0.4,0.3-0.9,0.5-1.4,0.7c-0.5,0.1-1.1,0.2-1.7,0.2h-5.7v-7.6h5.7c0.6,0,1.2,0.1,1.7,0.2c0.5,0.1,1,0.4,1.4,0.7
		c0.4,0.3,0.7,0.7,0.9,1.1c0.2,0.5,0.3,1.1,0.3,1.7c0,0.7-0.1,1.3-0.3,1.7C542.1,129.1,541.8,129.5,541.4,129.8"/>
	<polygon style="fill:#5F6060;" points="568.3,143 581.9,143 581.9,140.9 570.6,140.9 570.6,133 580.3,133 580.3,130.8 570.6,130.8 
		570.6,123.1 581.9,123.1 581.9,121 568.3,121 	"/>
	<polygon style="fill:#5F6060;" points="608.7,131.3 603.5,121 601,121 607.5,133.9 607.5,143 609.8,143 609.8,133.9 616.3,121 
		613.8,121 	"/>
	<path style="fill:#5F6060;" d="M650.8,126.5c-0.1-0.7-0.3-1.3-0.6-1.9c-0.3-0.5-0.7-1.1-1.2-1.6c-0.7-0.7-1.6-1.3-2.5-1.7
		c-1.9-0.8-4.2-0.8-6.1,0c-1,0.4-1.8,1-2.5,1.7c-0.5,0.5-0.9,1-1.2,1.6c-0.3,0.5-0.5,1.2-0.6,1.9c-0.1,0.7-0.2,1.5-0.2,2.3
		c0,0.9,0,1.9,0,3.1c0,1.2,0,2.2,0,3.1c0,0.9,0.1,1.7,0.2,2.4c0.1,0.7,0.3,1.3,0.6,1.8c0.3,0.5,0.7,1.1,1.2,1.6
		c0.7,0.7,1.6,1.3,2.5,1.7c1,0.4,2,0.6,3,0.6c1.1,0,2.1-0.2,3-0.6c1-0.4,1.8-1,2.5-1.7c0.5-0.5,0.9-1,1.2-1.6
		c0.3-0.5,0.5-1.2,0.6-1.8c0.1-0.7,0.2-1.5,0.2-2.4c0-0.9,0-1.9,0-3.1c0-1.2,0-2.2,0-3.1C651,128,650.9,127.2,650.8,126.5
		 M648.8,132c0,1.1,0,2.1,0,2.9v0c0,0.8-0.1,1.5-0.2,2c-0.1,0.6-0.3,1-0.5,1.4c-0.2,0.4-0.5,0.8-0.8,1.1c-0.5,0.5-1.1,0.9-1.7,1.2
		c-1.3,0.5-2.8,0.5-4.1,0c-0.7-0.3-1.2-0.6-1.7-1.2c-0.4-0.4-0.6-0.7-0.8-1.1c-0.2-0.4-0.4-0.9-0.5-1.4c-0.1-0.6-0.2-1.2-0.2-2
		c0-0.8,0-1.8,0-2.9c0-1.1,0-2.1,0-2.9c0-0.8,0.1-1.5,0.2-2c0.1-0.6,0.3-1,0.5-1.4c0.2-0.4,0.5-0.8,0.8-1.1c0.5-0.5,1.1-0.9,1.7-1.1
		c0.7-0.3,1.3-0.4,2.1-0.4c0.7,0,1.4,0.1,2.1,0.4c0.7,0.3,1.2,0.6,1.7,1.1c0.3,0.3,0.6,0.7,0.8,1.1c0.2,0.4,0.4,0.9,0.5,1.4
		c0.1,0.6,0.2,1.3,0.2,2C648.8,129.9,648.8,130.8,648.8,132"/>
	<polygon style="fill:#5F6060;" points="688,138.7 676.2,121 674.1,121 674.1,143 676.4,143 676.4,125.2 688.1,142.8 688.2,143 
		690.3,143 690.3,121 688,121 	"/>
	<path style="fill:#5F6060;" d="M729.2,127.1L729.2,127.1c-0.1-0.8-0.3-1.5-0.6-2.2c-0.3-0.7-0.7-1.4-1.3-1.9c-1.4-1.4-3.2-2-5.6-2
		h-7.5v22h7.5c1.2,0,2.2-0.2,3.1-0.5c0.9-0.3,1.8-0.9,2.4-1.5c0.6-0.6,1-1.3,1.3-2c0.3-0.7,0.5-1.6,0.6-2.4c0.1-0.8,0.2-1.7,0.2-2.5
		c0-0.8,0-1.6,0-2.3c0-0.7,0-1.5,0-2.2C729.4,128.7,729.3,127.9,729.2,127.1 M727.1,131.7c0,0.6,0,1.3,0,2c0,0.7-0.1,1.4-0.1,2.1
		c-0.1,0.7-0.2,1.4-0.4,2c-0.2,0.6-0.5,1.1-0.9,1.5c-0.6,0.6-1.2,1-2,1.2c-0.8,0.2-1.6,0.3-2.4,0.3h-4.8v-17.7h4.8
		c0.8,0,1.6,0.1,2.4,0.3c0.7,0.2,1.4,0.6,2,1.2c0.4,0.4,0.7,0.9,0.9,1.4c0.2,0.6,0.4,1.2,0.4,1.8c0.1,0.6,0.1,1.3,0.1,1.9
		C727.1,130.4,727.1,131.1,727.1,131.7"/>
	<polygon style="fill:#5F6060;" points="805.9,121 803.6,121 803.6,143 817.2,143 817.2,140.9 805.9,140.9 	"/>
	<rect x="838.7" y="121" style="fill:#5F6060;" width="2.3" height="22"/>
	<path style="fill:#5F6060;" d="M866.5,127c0.1-0.6,0.3-1,0.5-1.4c0.2-0.4,0.5-0.8,0.8-1.1c0.5-0.5,1.1-0.9,1.7-1.1
		c0.7-0.3,1.3-0.4,2.1-0.4c1.3,0,2.5,0.4,3.4,1.2c0.9,0.8,1.6,1.9,1.9,3.3l0.1,0.3h2.3l-0.1-0.4c-0.2-1-0.5-1.9-0.9-2.7
		c-0.4-0.8-1-1.5-1.7-2.1c-0.7-0.6-1.4-1-2.3-1.3c-1.8-0.6-3.9-0.6-5.8,0.1c-1,0.4-1.8,1-2.5,1.7c-0.5,0.5-0.9,1-1.2,1.6
		c-0.3,0.5-0.5,1.2-0.6,1.9c-0.1,0.7-0.2,1.5-0.2,2.3c0,0.9,0,1.9,0,3.1c0,1.2,0,2.2,0,3.1c0,0.9,0.1,1.7,0.2,2.4
		c0.1,0.7,0.3,1.3,0.6,1.8s0.7,1.1,1.2,1.6c0.7,0.7,1.6,1.3,2.5,1.7c1,0.4,2,0.6,3,0.6c1.1,0,2.2-0.2,3.2-0.7c1-0.4,1.9-1.1,2.6-1.9
		c0.7-0.7,1.1-1.5,1.4-2.4c0.3-0.9,0.4-1.9,0.4-3v-3.8h-8v2.1h5.7v1.6c0,0.9-0.1,1.6-0.3,2.3c-0.2,0.6-0.5,1.2-0.9,1.7
		c-0.5,0.6-1.2,1.1-1.9,1.4c-1.4,0.6-3,0.6-4.3,0.1c-0.6-0.3-1.2-0.6-1.7-1.1c-0.4-0.4-0.6-0.7-0.8-1.1c-0.2-0.4-0.4-0.9-0.5-1.4
		c-0.1-0.6-0.2-1.3-0.2-2c0-0.8,0-1.8,0-2.9c0-1.1,0-2.1,0-2.9C866.4,128.3,866.4,127.6,866.5,127"/>
	<polygon style="fill:#5F6060;" points="915,130.8 904.6,130.8 904.6,121 902.3,121 902.3,143 904.6,143 904.6,133 915,133 915,143 
		917.3,143 917.3,121 915,121 	"/>
	<polygon style="fill:#5F6060;" points="938.8,121 938.8,123.1 945.1,123.1 945.1,143 947.4,143 947.4,123.1 953.8,123.1 953.8,121 
			"/>
	<path style="fill:#5F6060;" d="M0,0.6v142.4h118c0,0,24.4,2.1,24.4-20.9V0.6H0z"/>
	<polygon style="fill:#F6D745;" points="24.4,83.1 118,24.9 24.4,24.9 	"/>
	<polygon style="fill:#F6D745;" points="24.4,119.2 24.4,83.1 80.8,83.1 	"/>
</g>
</svg>
