<svg version="1.1" id="Layer_1" xmlns="http://www.w3.org/2000/svg" xmlns:xlink="http://www.w3.org/1999/xlink" x="0px" y="0px" width="100%" height="auto" viewBox="0 0 1022.6 173" style="enable-background:new 0 0 1022.6 173;" xml:space="preserve">



<g>
    <path style="fill: rgb(255, 255, 255);" d="M732.1,14.9H719c-7.6,0-13.7,6.4-13.7,13.5v45.4c0,6-2.6,9.9-9.9,9.9h-44.6c-5.4,0-8.8-3.8-8.8-9
        V28.2c0-8-7.4-13.2-13.4-13.2h-13.3c-0.3,0-0.5,0.2-0.5,0.5v60.8c0,13.1,9.2,30,30.2,30h7h51.4c16.1,0,29.3-13.4,29.3-30V15.5
        C732.6,15.2,732.4,14.9,732.1,14.9z" class="svg-elem-1"></path>
    <path style="fill: rgb(255, 255, 255);" d="M598.3,14.9H482.2c-0.3,0-0.5,0.2-0.5,0.5V26c0,6.4,5.2,11.6,11.6,11.6h26.5c3.9,0,7.1,3.2,7.1,7.1
        V106c0,0.3,0.2,0.5,0.5,0.5h25.8c0.3,0,0.5-0.2,0.5-0.5V44.6c0-3.9,3.2-7.1,7.1-7.1h26.5c6.4,0,11.6-5.2,11.6-11.6V15.5
        C598.9,15.2,598.6,14.9,598.3,14.9z" class="svg-elem-2"></path>
    <path style="fill: rgb(255, 255, 255);" d="M469.2,14.9h-13.1c-7.6,0-13.7,6.4-13.7,13.5v45.4c0,6-2.6,9.9-9.9,9.9H388c-5.4,0-8.8-3.8-8.8-9
        V28.2c0-8-7.4-13.2-13.4-13.2h-13.3c-0.3,0-0.5,0.2-0.5,0.5v60.2c0,13.1,9.2,30.6,30.2,30.6h7h51.4c16.1,0,29.3-13.8,29.3-30.4
        V15.5C469.8,15.2,469.5,14.9,469.2,14.9z" class="svg-elem-3"></path>
    <path style="fill: rgb(255, 255, 255);" d="M338.2,27.2V15.5c0-0.3-0.2-0.5-0.5-0.5h-85.8c-19.4,0-30.2,12.9-30.2,29.2v61.6
        c0,0.3,0.2,0.5,0.5,0.5H236c6.8,0,13-6.4,13-13.6V78.9c0-0.3,0.2-0.5,0.5-0.5h36.1c2.6,0,4.9-0.8,6.1-2.8l9.2-15.5
        c2-3.4-0.8-7.4-4.4-7.4h-47c-0.3,0-0.5-0.2-0.5-0.5v-4.6c0-7.2,2.4-10.1,9.9-10.1h68.3C333.1,37.5,338.2,32.2,338.2,27.2z" class="svg-elem-4"></path>
    <path style="fill: rgb(255, 255, 255);" d="M987.9,105.5L955.4,47c-13.5-24.2-31.8-31.5-49.2-31.5c-17.4,0-36.1,7.1-49.9,32l-32.1,58
        c-0.2,0.4,0.1,0.8,0.5,0.8h30c0.2,0,0.4-0.1,0.5-0.3l29.7-53.6c5.8-10.5,12.2-14.7,21.2-14.7c7.3,0,14.4,2.7,20.5,13.8l7.8,14.2
        c0.2,0.4-0.1,0.8-0.5,0.8h-33.6c-2.1,0-4.9,0.4-6.2,2.8l-8.7,15.5c-1.8,3.2,0.7,7.4,3.8,7.4h59.4c0.2,0,0.4,0.1,0.5,0.3l7.4,13.6
        c0.1,0.2,0.3,0.3,0.5,0.3h30.5C987.8,106.3,988.1,105.8,987.9,105.5z" class="svg-elem-5"></path>
    <path style="fill: rgb(255, 255, 255);" d="M854,26V15.5c0-0.3-0.2-0.5-0.5-0.5h-69.3c-16.5,0-30.2,13.4-30.2,30.6v60c0,0.3,0.2,0.5,0.5,0.5
        h13.7c7.1,0,13-5.8,13-13V47.6c0-5.8,5.1-10.1,9.9-10.1h51.3C848.9,37.5,854,32.3,854,26z" class="svg-elem-6"></path>
    <path style="fill: rgb(255, 255, 255);" d="M234.4,137.6c-0.6-0.5-1.3-1-2.2-1.3c-0.8-0.3-1.7-0.4-2.7-0.4h-8.2v22h2.3v-9h5.9
        c1,0,1.9-0.1,2.7-0.4c0.8-0.3,1.6-0.7,2.2-1.3c0.6-0.6,1.1-1.2,1.4-2c0.3-0.8,0.5-1.7,0.5-2.7s-0.2-1.9-0.5-2.7
        C235.5,138.8,235,138.2,234.4,137.6z M233.7,144.3c-0.2,0.5-0.5,1-0.9,1.3c-0.4,0.4-0.9,0.6-1.4,0.8c-0.6,0.2-1.2,0.3-1.9,0.3h-5.7
        V138h5.7c0.7,0,1.3,0.1,1.9,0.3c0.6,0.2,1,0.4,1.4,0.8c0.4,0.4,0.7,0.8,0.9,1.3c0.2,0.5,0.3,1.2,0.3,1.9
        C234,143.1,233.9,143.8,233.7,144.3z" class="svg-elem-7"></path>
    <path style="fill: rgb(255, 255, 255);" d="M261.9,135.9l-8.1,22h2.5l1.9-5.2h9.5l1.9,5.2h2.5l-8.1-22H261.9z M258.8,150.6l4-11.2l4,11.2H258.8
        z" class="svg-elem-8"></path>
    <path style="fill: rgb(255, 255, 255);" d="M306.2,146.1L306.2,146.1c0.9-1,1.4-2.4,1.4-4.1c0-1-0.2-1.8-0.5-2.6c-0.3-0.8-0.8-1.4-1.4-1.9
        c-0.6-0.5-1.3-0.9-2.1-1.2c-0.8-0.3-1.6-0.4-2.5-0.4h-8.5v22h2.3v-9.8h5.3l5.1,9.8h2.7l-5.2-9.9C304.3,147.6,305.4,147,306.2,146.1
        z M301,146H295V138h5.9c0.6,0,1.2,0.1,1.8,0.2c0.5,0.2,1,0.4,1.4,0.7c0.4,0.3,0.7,0.7,0.9,1.2c0.2,0.5,0.3,1.1,0.3,1.8
        c0,0.7-0.1,1.3-0.3,1.8c-0.2,0.5-0.5,0.9-0.9,1.2c-0.4,0.3-0.8,0.6-1.4,0.7C302.2,145.9,301.6,146,301,146z" class="svg-elem-9"></path>
    <polygon style="fill: rgb(255, 255, 255);" points="328,138 334.3,138 334.3,157.9 336.6,157.9 336.6,138 343,138 343,135.9 328,135.9  " class="svg-elem-10"></polygon>
    <polygon style="fill: rgb(255, 255, 255);" points="378.4,153.6 366.6,135.9 364.4,135.9 364.4,157.9 366.7,157.9 366.7,140.2 378.4,157.7 
        378.5,157.9 380.7,157.9 380.7,135.9 378.4,135.9     " class="svg-elem-11"></polygon>
    <polygon style="fill: rgb(255, 255, 255);" points="404.5,157.9 418.1,157.9 418.1,155.8 406.8,155.8 406.8,147.9 416.5,147.9 416.5,145.7 
        406.8,145.7 406.8,138 418.1,138 418.1,135.9 404.5,135.9     " class="svg-elem-12"></polygon>
    <path style="fill: rgb(255, 255, 255);" d="M453.9,146.1L453.9,146.1c0.9-1,1.4-2.4,1.4-4.1c0-1-0.2-1.8-0.5-2.6c-0.3-0.8-0.8-1.4-1.4-1.9
        c-0.6-0.5-1.3-0.9-2.1-1.2c-0.8-0.3-1.6-0.4-2.5-0.4h-8.5v22h2.3v-9.8h5.3l5.1,9.8h2.7l-5.2-9.9C451.9,147.6,453,147,453.9,146.1z
         M448.6,146h-5.9V138h5.9c0.6,0,1.2,0.1,1.8,0.2c0.5,0.2,1,0.4,1.4,0.7c0.4,0.3,0.7,0.7,0.9,1.2c0.2,0.5,0.3,1.1,0.3,1.8
        c0,0.7-0.1,1.3-0.3,1.8c-0.2,0.5-0.5,0.9-0.9,1.2c-0.4,0.3-0.8,0.6-1.4,0.7C449.9,145.9,449.3,146,448.6,146z" class="svg-elem-13"></path>
    <path style="fill: rgb(255, 255, 255);" d="M489.2,147.4L489.2,147.4c-0.2-0.2-0.5-0.4-0.7-0.5c-0.3-0.2-0.5-0.3-0.9-0.4
        c-0.3-0.1-0.7-0.2-1.1-0.3c-0.4-0.1-0.8-0.2-1.3-0.2l-2.3-0.4c-0.6-0.1-1.1-0.3-1.7-0.5c-0.5-0.2-1-0.5-1.3-0.8
        c-0.7-0.6-1-1.4-1-2.5c0-1.3,0.4-2.2,1.2-3c0.8-0.7,1.9-1.1,3.4-1.1c0.6,0,1.2,0,1.6,0.1c0.5,0.1,0.9,0.2,1.3,0.4
        c0.4,0.2,0.7,0.4,1,0.6c0.3,0.2,0.7,0.5,1,0.8l0.2,0.2l1.5-1.5l-0.3-0.2c-0.9-0.8-1.9-1.4-2.9-1.8c-1-0.4-2.1-0.6-3.5-0.6
        c-2.1,0-3.8,0.6-5.1,1.7c-1.3,1.1-1.9,2.6-1.9,4.5c0,1.8,0.6,3.2,1.8,4.2c1,0.8,2.3,1.4,4,1.6l2.5,0.4c0.4,0.1,0.8,0.1,1.1,0.2
        c0.3,0.1,0.5,0.1,0.8,0.2c0.2,0.1,0.4,0.2,0.5,0.3c0.2,0.1,0.4,0.2,0.5,0.4c0.7,0.6,1.1,1.5,1.1,2.7c0,1.3-0.4,2.3-1.3,3
        c-0.9,0.7-2.2,1.1-3.8,1.1c-0.6,0-1.2,0-1.7-0.1c-0.5-0.1-1-0.2-1.4-0.4c-0.5-0.2-0.9-0.4-1.3-0.7c-0.4-0.3-0.9-0.7-1.3-1.2
        l-0.2-0.2l-1.6,1.6l0.2,0.2c0.5,0.5,1,0.9,1.5,1.3c0.5,0.4,1.1,0.7,1.7,0.9c0.6,0.2,1.2,0.4,1.9,0.5c0.7,0.1,1.4,0.2,2.2,0.2
        c2.3,0,4.2-0.6,5.5-1.7c1.4-1.1,2-2.7,2-4.6c0-0.9-0.2-1.7-0.5-2.5C490.3,148.6,489.8,147.9,489.2,147.4z" class="svg-elem-14"></path>
    <path style="fill: rgb(255, 255, 255);" d="M576.6,146.6c0.7-0.4,1.4-0.9,1.8-1.6c0.6-0.9,0.9-2,0.9-3.2c0-0.9-0.2-1.8-0.5-2.5
        c-0.3-0.7-0.8-1.4-1.4-1.9c-0.6-0.5-1.3-0.9-2.1-1.2c-0.8-0.3-1.7-0.4-2.6-0.4h-8.2v22h8.4c1,0,1.9-0.1,2.7-0.4
        c0.8-0.3,1.5-0.7,2.1-1.2c0.6-0.5,1-1.2,1.4-1.9c0.3-0.8,0.5-1.6,0.5-2.6c0-1.3-0.3-2.4-1-3.4C578.2,147.6,577.5,147,576.6,146.6z
         M567,138h5.7c0.6,0,1.2,0.1,1.7,0.2c0.5,0.1,1,0.4,1.4,0.7c0.4,0.3,0.7,0.7,0.9,1.1c0.2,0.5,0.3,1.1,0.3,1.7
        c0,0.7-0.1,1.3-0.3,1.7c-0.2,0.5-0.5,0.9-0.9,1.1c-0.4,0.3-0.9,0.5-1.4,0.7c-0.5,0.1-1.1,0.2-1.7,0.2H567V138z M576.2,154.7
        c-0.8,0.7-1.9,1.1-3.3,1.1H567v-8.1h5.9c1.4,0,2.5,0.4,3.3,1.1c0.8,0.7,1.2,1.7,1.2,3C577.4,153,577,154,576.2,154.7z" class="svg-elem-15"></path>
    <polygon style="fill: rgb(255, 255, 255);" points="602.7,157.9 616.4,157.9 616.4,155.8 605,155.8 605,147.9 614.7,147.9 614.7,145.7 
        605,145.7 605,138 616.4,138 616.4,135.9 602.7,135.9     " class="svg-elem-16"></polygon>
    <polygon style="fill: rgb(255, 255, 255);" points="643.1,146.2 637.9,135.9 635.4,135.9 641.9,148.8 641.9,157.9 644.2,157.9 644.2,148.8 
        650.7,135.9 648.2,135.9     " class="svg-elem-17"></polygon>
    <path style="fill: rgb(255, 255, 255);" d="M685.2,141.4c-0.1-0.7-0.3-1.3-0.6-1.9c-0.3-0.5-0.7-1.1-1.2-1.6c-0.7-0.7-1.6-1.3-2.5-1.7
        c-1.9-0.8-4.2-0.8-6.1,0c-1,0.4-1.8,1-2.5,1.7c-0.5,0.5-0.9,1-1.2,1.6c-0.3,0.5-0.5,1.2-0.6,1.9c-0.1,0.7-0.2,1.5-0.2,2.3
        c0,0.9,0,1.9,0,3.1c0,1.2,0,2.2,0,3.1c0,0.9,0.1,1.7,0.2,2.4c0.1,0.7,0.3,1.3,0.6,1.8c0.3,0.5,0.7,1.1,1.2,1.6
        c0.7,0.7,1.6,1.3,2.5,1.7c1,0.4,2,0.6,3,0.6c1.1,0,2.1-0.2,3-0.6c1-0.4,1.8-1,2.5-1.7c0.5-0.5,0.9-1,1.2-1.6
        c0.3-0.5,0.5-1.2,0.6-1.8c0.1-0.7,0.2-1.5,0.2-2.4c0-0.9,0-1.9,0-3.1c0-1.2,0-2.2,0-3.1C685.4,142.9,685.4,142.1,685.2,141.4z
         M683.1,149.8L683.1,149.8c0,0.8-0.1,1.5-0.2,2c-0.1,0.6-0.3,1-0.5,1.4c-0.2,0.4-0.5,0.8-0.8,1.1c-0.5,0.5-1.1,0.9-1.7,1.2
        c-1.3,0.5-2.8,0.5-4.1,0c-0.7-0.3-1.2-0.6-1.7-1.2c-0.4-0.4-0.6-0.7-0.8-1.1c-0.2-0.4-0.4-0.9-0.5-1.4c-0.1-0.6-0.2-1.2-0.2-2
        c0-0.8,0-1.8,0-2.9c0-1.1,0-2.1,0-2.9c0-0.8,0.1-1.5,0.2-2c0.1-0.6,0.3-1,0.5-1.4c0.2-0.4,0.5-0.8,0.8-1.1c0.5-0.5,1.1-0.9,1.7-1.1
        c0.7-0.3,1.3-0.4,2.1-0.4c0.7,0,1.4,0.1,2.1,0.4c0.7,0.3,1.2,0.6,1.7,1.2c0.3,0.3,0.6,0.7,0.8,1.1c0.2,0.4,0.4,0.9,0.5,1.4
        c0.1,0.6,0.2,1.3,0.2,2c0,0.8,0,1.8,0,2.9C683.2,148,683.2,149,683.1,149.8z" class="svg-elem-18"></path>
    <polygon style="fill: rgb(255, 255, 255);" points="722.4,153.6 710.6,135.9 708.5,135.9 708.5,157.9 710.8,157.9 710.8,140.2 722.5,157.7 
        722.6,157.9 724.7,157.9 724.7,135.9 722.4,135.9     " class="svg-elem-19"></polygon>
    <path style="fill: rgb(255, 255, 255);" d="M763.6,142.1L763.6,142.1c-0.1-0.8-0.3-1.5-0.6-2.2c-0.3-0.7-0.7-1.4-1.3-1.9c-1.4-1.4-3.2-2-5.6-2
        h-7.5v22h7.5c1.2,0,2.2-0.2,3.1-0.5c0.9-0.3,1.8-0.9,2.4-1.5c0.6-0.6,1-1.3,1.3-2c0.3-0.7,0.5-1.6,0.6-2.4c0.1-0.8,0.2-1.7,0.2-2.5
        c0-0.8,0-1.6,0-2.3c0-0.7,0-1.5,0-2.2C763.8,143.6,763.7,142.8,763.6,142.1z M761.5,148.6c0,0.7-0.1,1.4-0.1,2.1
        c-0.1,0.7-0.2,1.4-0.4,2c-0.2,0.6-0.5,1.1-0.9,1.5c-0.6,0.6-1.2,1-2,1.2c-0.8,0.2-1.6,0.3-2.4,0.3h-4.8V138h4.8
        c0.8,0,1.6,0.1,2.4,0.3c0.7,0.2,1.4,0.6,2,1.2c0.4,0.4,0.7,0.9,0.9,1.4c0.2,0.6,0.4,1.2,0.4,1.8c0.1,0.6,0.1,1.3,0.1,1.9
        c0,0.7,0,1.3,0,1.9C761.5,147.2,761.5,147.9,761.5,148.6z" class="svg-elem-20"></path>
    <polygon style="fill: rgb(255, 255, 255);" points="840.3,135.9 838,135.9 838,157.9 851.6,157.9 851.6,155.8 840.3,155.8  " class="svg-elem-21"></polygon>
    <rect x="873.1" y="135.9" style="fill: rgb(255, 255, 255);" width="2.3" height="22" class="svg-elem-22"></rect>
    <path style="fill: rgb(255, 255, 255);" d="M901,142c0.1-0.6,0.3-1,0.5-1.4c0.2-0.4,0.5-0.8,0.8-1.1c0.5-0.5,1.1-0.9,1.7-1.2
        c0.7-0.3,1.3-0.4,2.1-0.4c1.3,0,2.5,0.4,3.4,1.2c0.9,0.8,1.6,1.9,1.9,3.3l0.1,0.3h2.3l-0.1-0.4c-0.2-1-0.5-1.9-0.9-2.7
        c-0.4-0.8-1-1.5-1.7-2.1c-0.7-0.6-1.4-1-2.3-1.3c-1.8-0.6-3.9-0.6-5.8,0.1c-1,0.4-1.8,1-2.5,1.7c-0.5,0.5-0.9,1-1.2,1.6
        c-0.3,0.5-0.5,1.2-0.6,1.9c-0.1,0.7-0.2,1.5-0.2,2.3c0,0.9,0,1.9,0,3.1c0,1.2,0,2.2,0,3.1c0,0.9,0.1,1.7,0.2,2.4
        c0.1,0.7,0.3,1.3,0.6,1.8s0.7,1.1,1.2,1.6c0.7,0.7,1.6,1.3,2.5,1.7c1,0.4,2,0.6,3,0.6c1.1,0,2.2-0.2,3.2-0.7c1-0.4,1.9-1.1,2.6-1.9
        c0.7-0.7,1.1-1.5,1.4-2.4c0.3-0.8,0.4-1.9,0.4-3v-3.8h-8v2.1h5.7v1.6c0,0.9-0.1,1.6-0.3,2.3c-0.2,0.6-0.5,1.2-0.9,1.7
        c-0.5,0.6-1.2,1.1-1.9,1.4c-1.4,0.6-3,0.6-4.3,0.1c-0.6-0.3-1.2-0.6-1.7-1.1c-0.4-0.4-0.6-0.7-0.8-1.1c-0.2-0.4-0.4-0.9-0.5-1.4
        c-0.1-0.6-0.2-1.3-0.2-2c0-0.8,0-1.8,0-2.9c0-1.1,0-2.1,0-2.9C900.8,143.2,900.9,142.5,901,142z" class="svg-elem-23"></path>
    <polygon style="fill: rgb(255, 255, 255);" points="949.4,145.7 939,145.7 939,135.9 936.7,135.9 936.7,157.9 939,157.9 939,147.9 949.4,147.9 
        949.4,157.9 951.7,157.9 951.7,135.9 949.4,135.9     " class="svg-elem-24"></polygon>
    <polygon style="fill: rgb(255, 255, 255);" points="973.2,135.9 973.2,138 979.5,138 979.5,157.9 981.8,157.9 981.8,138 988.2,138 988.2,135.9 
            " class="svg-elem-25"></polygon>
    <path style="fill: rgb(255, 255, 255);" d="M34.4,157.8h118c0,0,24.4,2.1,24.4-20.9V15.5H34.4V157.8z M58.8,98V39.9h93.6L58.8,98h56.4
        l-56.4,36.1V98z" class="svg-elem-26"></path>
</g>

      </svg>